<svg xmlns="http://www.w3.org/2000/svg" viewBox="0 0 857.128526 859.524102" role="img" aria-label="reef brain-coral glyph">
  <path d="M5195 10466 c-168 -39 -284 -116 -391 -259 -90 -121 -137 -315 -115 -478 17 -126 46 -207 141 -394 111 -217 153 -324 180 -455 19 -91 21 -128 17 -270 -4 -134 -10 -183 -30 -262 -47 -177 -120 -285 -212 -309 -139 -38 -319 153 -410 433 -42 129 -60 234 -80 473 -16 191 -48 344 -91 441 -130 295 -447 441 -736 340 -269 -94 -426 -388 -363 -684 18 -89 39 -140 89 -225 61 -103 133 -176 316 -322 245 -196 337 -301 426 -489 63 -134 94 -262 94 -392 0 -204 -49 -316 -165 -377 -31 -16 -58 -21 -120 -21 -97 1 -163 23 -264 88 -94 61 -176 145 -301 311 -128 169 -213 249 -322 304 -107 54 -206 75 -318 67 -158 -10 -261 -57 -376 -171 -135 -134 -193 -284 -181 -474 14 -222 122 -409 311 -540 138 -95 289 -147 496 -172 115 -13 409 -8 715 11 357 23 696 -23 955 -130 451 -186 798 -602 925 -1110 140 -557 2 -1142 -344 -1462 -89 -82 -157 -128 -266 -179 -128 -60 -218 -80 -382 -86 -173 -7 -296 11 -464 67 -334 111 -582 312 -709 575 -117 243 -102 544 38 747 224 326 678 344 840 33 34 -66 42 -196 18 -309 -20 -96 -20 -119 -1 -182 18 -62 69 -122 127 -152 184 -91 393 -2 507 217 146 282 106 679 -100 976 -68 99 -205 228 -307 289 -296 177 -696 209 -1072 86 -211 -69 -380 -171 -536 -325 -121 -119 -202 -232 -280 -390 -71 -146 -105 -254 -136 -430 -29 -170 -22 -445 16 -622 86 -404 298 -733 645 -1001 230 -178 465 -296 911 -457 350 -126 511 -199 665 -303 129 -86 222 -172 370 -339 72 -81 149 -162 172 -179 48 -36 133 -71 209 -85 31 -6 428 -8 985 -7 l934 3 60 23 c92 35 160 87 253 197 296 345 506 483 1022 670 638 231 942 410 1213 713 502 563 568 1397 160 2016 -63 95 -259 290 -357 356 -162 108 -379 191 -581 221 -44 7 -143 12 -220 12 -312 -2 -572 -98 -771 -286 -109 -103 -166 -179 -226 -303 -132 -276 -139 -584 -17 -832 108 -220 318 -312 506 -221 82 40 143 142 143 238 0 20 -7 65 -16 101 -9 36 -16 102 -16 146 -1 71 3 90 30 147 40 86 100 150 176 187 104 51 219 63 330 34 105 -27 165 -63 252 -149 64 -63 90 -98 122 -165 57 -116 75 -193 75 -320 0 -349 -223 -669 -598 -858 -178 -89 -348 -131 -565 -139 -131 -4 -170 -2 -251 15 -498 103 -833 545 -878 1160 -17 217 12 455 79 662 43 131 157 356 237 469 123 172 303 336 484 442 143 83 367 162 548 193 211 36 353 40 705 21 489 -27 704 -14 896 53 323 113 534 386 533 692 0 112 -20 195 -72 295 -48 94 -162 209 -252 252 -216 106 -469 76 -676 -81 -68 -51 -119 -108 -241 -267 -117 -152 -233 -259 -335 -308 -93 -45 -188 -65 -258 -56 -101 14 -199 102 -231 208 -8 26 -13 98 -13 187 1 166 17 243 85 387 85 182 194 310 418 491 257 208 355 335 402 518 40 154 18 339 -54 468 -47 83 -158 188 -239 226 -68 32 -178 60 -240 60 -111 0 -271 -58 -365 -132 -125 -100 -216 -271 -251 -473 -6 -33 -17 -141 -26 -240 -24 -294 -58 -442 -135 -595 -78 -155 -193 -269 -288 -285 -183 -31 -327 281 -309 665 10 211 47 329 188 610 53 107 105 218 114 245 46 138 57 290 30 420 -45 215 -213 403 -420 472 -68 23 -98 27 -200 27 -107 1 -130 -2 -209 -28 -195 -64 -361 -220 -440 -416 -73 -179 -75 -404 -5 -675 27 -107 42 -150 179 -495 338 -852 414 -1278 319 -1779 -38 -200 -110 -419 -241 -736 -187 -450 -268 -702 -323 -999 -38 -208 -48 -360 -42 -629 6 -261 16 -361 77 -732 70 -423 84 -555 84 -805 0 -239 -14 -372 -55 -520 -46 -170 -139 -304 -227 -331 -125 -37 -243 71 -312 288 -54 169 -64 258 -64 563 0 304 3 333 79 790 64 381 76 488 82 735 9 371 -28 646 -138 1011 -49 165 -98 297 -237 644 -225 562 -280 800 -269 1163 10 362 84 644 333 1272 203 512 242 646 251 871 6 155 -8 259 -52 366 -81 199 -248 358 -440 418 -89 28 -254 36 -340 16z" transform="translate(-198.166606,1047.701796) scale(0.1,-0.1)" fill="#0d9488"/>
</svg>
