<svg xmlns="http://www.w3.org/2000/svg" viewBox="0 0 64 64" role="img" aria-label="reef">
  <defs>
    <!-- userSpaceOnUse: objectBoundingBox gradients degenerate on axis-aligned
         subpaths; user-space coords are safe for any geometry in this 64-box. -->
    <linearGradient id="g" gradientUnits="userSpaceOnUse" x1="0" y1="54" x2="0" y2="15">
      <stop offset="0" stop-color="#0d9488"/>
      <stop offset="1" stop-color="#5eead4"/>
    </linearGradient>
  </defs>
  <rect width="64" height="64" rx="14" fill="#e7f9f4"/>
  <!-- CORAL_PATHS from src/components/organisms.ts — keep in sync by hand. -->
  <path d="M32 54V46M32 46Q23.5 44.2 17.9 40.9M32 46Q23.1 40.8 17.2 31.2M32 46Q26.2 37.6 22.3 21.9M32 46Q32 35.8 32 17M32 46Q37.8 37.6 41.7 21.9M32 46Q40.9 40.8 46.8 31.2M32 46Q40.5 44.2 46.1 40.9M23.1 37.1Q19.5 36.2 16.5 34.7M40.9 37.1Q44.5 36.2 47.5 34.7M32 27Q34.2 23.5 35.5 20.9"
    fill="none" stroke="url(#g)" stroke-width="4.4" stroke-linecap="round" stroke-linejoin="round"/>
</svg>
